PathFileType	4	(X/Y/Z)	C:\Users\dbl\Desktop\20210112\20210112\bx_n_5_1802.trc
DataRate	CameraRate	NumFrames	NumMarkers	Units	OrigDataRate	OrigDataStartFrame	OrigNumFrames
50.00	50.00	       4	43	mm	50.00	197	       523
Frame#	Time	Top.Head			R.Acromium			L.Acromium			Sternum			R.ASIS			L.ASIS			V.Sacral			R.Thigh.Upper			R.Thigh.Front			R.Thigh.Rear			R.Knee.Lat			R.Knee.Med			R.Shank.Upper			R.Shank.Front			R.Shank.Rear			R.Ankle.Lat			R.Midfoot.Lat			R.Toe.Lat			R.Toe.Tip			R.Toe.Med			R.Ankle.Med			R.Midfoot.Sup			R.Heel			L.Thigh.Upper			L.Thigh.Front			L.Thigh.Rear			L.Knee.Lat			L.Knee.Med			L.Shank.Upper			L.Shank.Front			L.Shank.Rear			L.Ankle.Lat			L.Midfoot.Lat			L.Toe.Lat			L.Toe.Tip			L.Toe.Med			L.Ankle.Med			L.Midfoot.Sup			L.Heel			origin1 front left			origin2 front right			origin 3 back right			origin 4 back leftt			
		X1	Y1	Z1	X2	Y2	Z2	X3	Y3	Z3	X4	Y4	Z4	X5	Y5	Z5	X6	Y6	Z6	X7	Y7	Z7	X8	Y8	Z8	X9	Y9	Z9	X10	Y10	Z10	X11	Y11	Z11	X12	Y12	Z12	X13	Y13	Z13	X14	Y14	Z14	X15	Y15	Z15	X16	Y16	Z16	X17	Y17	Z17	X18	Y18	Z18	X19	Y19	Z19	X20	Y20	Z20	X21	Y21	Z21	X22	Y22	Z22	X23	Y23	Z23	X24	Y24	Z24	X25	Y25	Z25	X26	Y26	Z26	X27	Y27	Z27	X28	Y28	Z28	X29	Y29	Z29	X30	Y30	Z30	X31	Y31	Z31	X32	Y32	Z32	X33	Y33	Z33	X34	Y34	Z34	X35	Y35	Z35	X36	Y36	Z36	X37	Y37	Z37	X38	Y38	Z38	X39	Y39	Z39	X40	Y40	Z40	X41	Y41	Z41	X42	Y42	Z42	X43	Y43	Z43	

197	3.920	-427.34283	104.95445	1541.01770	-515.23035	-66.04145	1246.73206	-533.77777	279.25409	1248.84692	-570.65649	100.55419	1051.72119	-761.80267	-14.56305	893.62280	-758.54187	227.84680	888.64124	-966.25348	93.76338	895.34125	-769.78363	-85.02211	756.81451	-655.54834	-27.47730	768.23193	-691.07745	-78.36126	669.88898	-588.31659	-52.35646	568.21161	-543.46863	61.49003	557.76904	-578.99615	-50.14721	527.58392	-536.28711	-0.22102	471.12448	-645.44897	-53.23177	465.61951	-747.07349	-12.40331	208.67519	-649.26520	-67.92300	162.21585	-610.98615	-78.99269	154.82500	-548.02753	-34.42985	161.13808	-595.51453	24.57834	166.49156	-704.07080	76.34332	209.34914	-669.94720	54.85467	153.18953	-786.91797	48.18916	179.53529	-776.59955	283.46457	738.91083	-652.35596	218.10771	771.67084	-668.56604	282.29932	652.82269	-598.07983	261.07693	573.20074	-526.58740	160.47678	540.28455	-570.87061	262.72861	530.95874	-521.74158	220.22562	483.29666	-629.24377	265.55685	473.69565	-757.82300	223.84480	207.82945	-661.15802	297.60233	158.65936	-625.75146	306.06195	159.07150	-555.32880	258.19751	163.39639	-590.44415	218.86723	172.42201	-701.19550	148.68283	206.27132	-673.80920	172.60402	152.63385	-789.96881	171.83095	189.82607	-528.31116	303.94412	146.16130	-517.97375	-72.72155	142.97462	-875.82764	-78.67540	141.17841	-882.74500	296.17963	144.63776	
198	3.940	-433.97119	104.46269	1557.20081	-518.47723	-66.75096	1261.50391	-536.82196	279.26089	1263.40393	-570.26221	100.43745	1065.97290	-757.95300	-14.39383	903.10468	-755.07922	227.40613	898.18164	-962.44751	93.21014	903.71381	-767.37177	-85.45381	763.12976	-653.06677	-28.28023	771.68884	-690.89728	-79.06211	674.37054	-590.52295	-52.81894	569.99286	-545.47577	61.11090	559.30792	-581.54376	-50.63730	528.96741	-538.82611	-0.25542	472.05438	-647.68762	-53.65478	466.49677	-747.48157	-12.43494	208.45259	-649.47144	-68.17253	162.10435	-610.92096	-79.04625	154.79872	-548.06714	-34.51771	161.15213	-595.54852	24.39002	166.67487	-704.05774	75.94881	209.75089	-669.73572	54.82689	153.51683	-786.89612	48.08755	179.42302	-774.27350	283.05551	745.75391	-649.35144	217.97638	775.55658	-668.60156	281.76950	656.83362	-599.94122	260.68469	575.57275	-528.45435	161.24939	541.72290	-573.15710	262.69150	532.62341	-524.00476	220.20880	484.80463	-631.37109	265.32867	474.78848	-758.13910	224.02438	207.73286	-661.20239	297.63428	158.61598	-625.83069	306.18091	159.05539	-555.37030	258.22144	163.38319	-590.53015	218.90259	172.50816	-701.45966	148.83640	206.46588	-673.78546	172.73810	152.63998	-790.15466	171.89308	189.78291	-528.27972	304.02469	146.24120	-517.93787	-72.74577	142.99487	-875.85938	-78.65839	141.17955	-882.75006	296.17090	144.66150	
199	3.960	-440.76706	103.98988	1573.25366	-521.92645	-67.58080	1276.25525	-540.09711	279.23984	1277.94922	-569.93616	100.21530	1080.22839	-753.86896	-14.11356	912.25366	-751.30591	226.95747	907.71124	-958.44458	92.62214	911.85425	-764.81824	-85.96188	769.35388	-650.44629	-29.04520	774.98560	-690.60126	-79.66117	678.64868	-592.65723	-53.20652	571.69000	-547.93530	60.62348	560.31439	-584.05389	-51.02336	530.28546	-541.41772	-0.28689	473.07849	-649.90936	-53.98547	467.33759	-747.72650	-12.59998	208.50471	-649.68494	-68.39734	161.98935	-610.85242	-79.09387	154.75745	-548.07477	-34.58576	161.13284	-595.53687	24.18496	166.81656	-703.91461	75.49107	210.07895	-669.50311	54.80782	153.82451	-786.81342	48.04043	179.42683	-771.67743	282.59958	752.59790	-646.15710	217.74985	779.35236	-668.49664	281.25616	660.91064	-601.75220	260.20013	577.92670	-530.40558	162.03682	543.22119	-575.39813	262.62619	534.34686	-526.34235	219.84572	486.14694	-633.56226	265.05692	475.90060	-758.47913	224.21242	207.70100	-661.28229	297.65656	158.59645	-625.83099	306.29547	159.08163	-555.37219	258.25592	163.37187	-590.59436	218.96547	172.56442	-701.66998	148.92598	206.62602	-673.79590	172.95685	152.57115	-790.27570	171.91946	189.74257	-528.24536	304.10434	146.29604	-517.91193	-72.80182	143.05492	-875.92474	-78.60570	141.13763	-882.76306	296.15387	144.68506	
200	3.980	-447.72397	103.50655	1589.19092	-525.49896	-68.51221	1291.00635	-543.53271	279.13409	1292.47192	-569.61127	99.84550	1094.48694	-749.58557	-13.97647	921.12537	-747.26917	226.46762	917.24603	-954.35657	92.08661	919.83362	-762.18420	-86.46004	775.45532	-647.73920	-29.67875	778.18292	-690.21259	-80.00906	682.71106	-594.78577	-53.42635	573.37256	-550.77411	60.06204	560.91193	-586.60760	-51.18504	531.59027	-544.06433	-0.33377	474.21661	-652.20129	-54.14661	468.18427	-747.88757	-12.82523	208.69344	-649.86005	-68.57394	161.87144	-610.78394	-79.12070	154.74146	-548.07074	-34.62764	161.10503	-595.51190	23.99400	166.91769	-703.75745	75.08977	210.24060	-669.35089	54.73746	154.05397	-786.70435	48.02973	179.48648	-768.86151	282.00357	759.37225	-642.83398	217.41588	783.08148	-668.23065	280.66974	665.01959	-603.58057	259.64783	580.33282	-532.46875	162.81378	544.76678	-577.70642	262.30334	536.07251	-528.78760	219.19640	487.40564	-635.82330	264.66537	477.03812	-758.74945	224.34828	207.69769	-661.36792	297.67456	158.58713	-625.77081	306.38791	159.12822	-555.35193	258.28827	163.37430	-590.63788	219.05411	172.59860	-701.76001	148.98666	206.77249	-673.81708	173.15544	152.53185	-790.32397	171.93184	189.68843	-528.22540	304.17133	146.32214	-517.89417	-72.84305	143.10274	-876.01575	-78.54133	141.09723	-882.77460	296.13431	144.69637	
